<mxfile host="65bd71144e" modified="2021-02-04T00:44:04.796Z" agent="5.0 (Macintosh; Intel Mac OS X 10_16_0) AppleWebKit/537.36 (KHTML, like Gecko) Code/1.51.1 Chrome/83.0.4103.122 Electron/9.3.3 Safari/537.36" version="13.10.0" etag="WbUTxUJP5niX4svk4uSW" type="embed">
    <diagram id="aQeTcuzChsOMu8A9vlH7" name="Page-1">
        <mxGraphModel dx="1831" dy="679" grid="1" gridSize="10" guides="1" tooltips="1" connect="1" arrows="1" fold="1" page="1" pageScale="1" pageWidth="850" pageHeight="1100" math="0" shadow="0">
            <root>
                <mxCell id="0"/>
                <mxCell id="1" parent="0"/>
                <mxCell id="31" value="" style="whiteSpace=wrap;html=1;aspect=fixed;" vertex="1" parent="1">
                    <mxGeometry x="860" y="360" width="300" height="300" as="geometry"/>
                </mxCell>
                <mxCell id="54" value="" style="rounded=0;whiteSpace=wrap;html=1;labelBackgroundColor=none;fontSize=14;fontColor=#99FFFF;" vertex="1" parent="1">
                    <mxGeometry x="880" y="430" width="250" height="170" as="geometry"/>
                </mxCell>
                <mxCell id="2" value="" style="whiteSpace=wrap;html=1;aspect=fixed;" parent="1" vertex="1">
                    <mxGeometry x="90" y="30" width="300" height="300" as="geometry"/>
                </mxCell>
                <mxCell id="3" value="Sign in" style="shape=process;whiteSpace=wrap;html=1;backgroundOutline=1;" parent="1" vertex="1">
                    <mxGeometry x="175" y="130" width="110" height="40" as="geometry"/>
                </mxCell>
                <mxCell id="4" value="" style="whiteSpace=wrap;html=1;aspect=fixed;" parent="1" vertex="1">
                    <mxGeometry x="475" y="30" width="300" height="300" as="geometry"/>
                </mxCell>
                <mxCell id="5" value="" style="whiteSpace=wrap;html=1;aspect=fixed;" parent="1" vertex="1">
                    <mxGeometry x="475" y="360" width="300" height="300" as="geometry"/>
                </mxCell>
                <mxCell id="6" value="" style="whiteSpace=wrap;html=1;aspect=fixed;" parent="1" vertex="1">
                    <mxGeometry x="850" y="30" width="300" height="300" as="geometry"/>
                </mxCell>
                <mxCell id="7" value="" style="whiteSpace=wrap;html=1;aspect=fixed;" parent="1" vertex="1">
                    <mxGeometry x="80" y="360" width="300" height="300" as="geometry"/>
                </mxCell>
                <mxCell id="10" value="Dashboard" style="shape=process;whiteSpace=wrap;html=1;backgroundOutline=1;" vertex="1" parent="1">
                    <mxGeometry x="570" y="50" width="110" height="40" as="geometry"/>
                </mxCell>
                <UserObject label="create account" placeholders="1" name="Variable" id="11">
                    <mxCell style="text;html=1;strokeColor=none;fillColor=none;align=center;verticalAlign=middle;whiteSpace=wrap;overflow=hidden;" vertex="1" parent="1">
                        <mxGeometry x="290" y="50" width="80" height="30" as="geometry"/>
                    </mxCell>
                </UserObject>
                <mxCell id="12" value="&lt;ul&gt;&lt;li&gt;first name&lt;/li&gt;&lt;li&gt;last name&lt;/li&gt;&lt;li&gt;email&amp;nbsp;&lt;/li&gt;&lt;li&gt;password&lt;/li&gt;&lt;li&gt;ps confirm&lt;/li&gt;&lt;/ul&gt;" style="text;strokeColor=none;fillColor=none;html=1;whiteSpace=wrap;verticalAlign=middle;overflow=hidden;" vertex="1" parent="1">
                    <mxGeometry x="170" y="420" width="140" height="160" as="geometry"/>
                </mxCell>
                <mxCell id="13" value="Reg" style="text;strokeColor=none;fillColor=none;html=1;fontSize=24;fontStyle=1;verticalAlign=middle;align=center;" vertex="1" parent="1">
                    <mxGeometry x="180" y="370" width="100" height="40" as="geometry"/>
                </mxCell>
                <mxCell id="17" value="" style="rounded=0;whiteSpace=wrap;html=1;" vertex="1" parent="1">
                    <mxGeometry x="530" y="110" width="120" height="20" as="geometry"/>
                </mxCell>
                <mxCell id="18" value="Beers you have tried" style="text;strokeColor=none;fillColor=none;html=1;fontSize=15;fontStyle=1;verticalAlign=middle;align=center;" vertex="1" parent="1">
                    <mxGeometry x="570" y="250" width="100" height="40" as="geometry"/>
                </mxCell>
                <mxCell id="19" value="" style="edgeStyle=elbowEdgeStyle;elbow=horizontal;endArrow=classic;html=1;" edge="1" parent="1">
                    <mxGeometry width="50" height="50" relative="1" as="geometry">
                        <mxPoint x="360" y="70" as="sourcePoint"/>
                        <mxPoint x="390" y="460" as="targetPoint"/>
                        <Array as="points">
                            <mxPoint x="410" y="130"/>
                        </Array>
                    </mxGeometry>
                </mxCell>
                <mxCell id="20" value="&lt;span style=&quot;font-weight: normal&quot;&gt;Search&lt;/span&gt;" style="text;strokeColor=none;fillColor=none;html=1;fontSize=15;fontStyle=1;verticalAlign=middle;align=center;" vertex="1" parent="1">
                    <mxGeometry x="640" y="100" width="100" height="40" as="geometry"/>
                </mxCell>
                <mxCell id="40" value="" style="edgeStyle=orthogonalEdgeStyle;rounded=0;orthogonalLoop=1;jettySize=auto;html=1;fontSize=12;fontColor=#99FFFF;" edge="1" parent="1" source="21" target="31">
                    <mxGeometry relative="1" as="geometry">
                        <mxPoint x="767.5" y="240" as="targetPoint"/>
                        <Array as="points">
                            <mxPoint x="730" y="240"/>
                            <mxPoint x="730" y="340"/>
                            <mxPoint x="940" y="340"/>
                        </Array>
                    </mxGeometry>
                </mxCell>
                <mxCell id="21" value="&lt;span style=&quot;font-weight: normal; font-size: 12px;&quot;&gt;Explore other Beers&lt;/span&gt;" style="text;strokeColor=none;fillColor=none;html=1;fontSize=12;fontStyle=1;verticalAlign=middle;align=center;fontColor=#99FFFF;" vertex="1" parent="1">
                    <mxGeometry x="552.5" y="220" width="135" height="40" as="geometry"/>
                </mxCell>
                <mxCell id="23" value="&lt;span style=&quot;font-weight: normal&quot;&gt;List of Beers tried&lt;/span&gt;" style="text;strokeColor=none;fillColor=none;html=1;fontSize=15;fontStyle=1;verticalAlign=middle;align=center;" vertex="1" parent="1">
                    <mxGeometry x="560" y="280" width="130" height="40" as="geometry"/>
                </mxCell>
                <mxCell id="24" value="form" style="text;strokeColor=none;fillColor=none;html=1;fontSize=24;fontStyle=1;verticalAlign=middle;align=center;" vertex="1" parent="1">
                    <mxGeometry x="575" y="370" width="100" height="40" as="geometry"/>
                </mxCell>
                <mxCell id="25" value="&lt;span style=&quot;font-weight: normal&quot;&gt;validations&lt;/span&gt;" style="text;strokeColor=none;fillColor=none;html=1;fontSize=15;fontStyle=1;verticalAlign=middle;align=center;" vertex="1" parent="1">
                    <mxGeometry x="552.5" y="140" width="135" height="40" as="geometry"/>
                </mxCell>
                <mxCell id="32" value="Browse Beers" style="text;strokeColor=none;fillColor=none;html=1;fontSize=24;fontStyle=1;verticalAlign=middle;align=center;" vertex="1" parent="1">
                    <mxGeometry x="915" y="380" width="190" height="40" as="geometry"/>
                </mxCell>
                <mxCell id="37" style="edgeStyle=orthogonalEdgeStyle;rounded=0;orthogonalLoop=1;jettySize=auto;html=1;fontSize=12;fontColor=#99FFFF;" edge="1" parent="1" source="33" target="5">
                    <mxGeometry relative="1" as="geometry">
                        <Array as="points">
                            <mxPoint x="510" y="180"/>
                            <mxPoint x="510" y="340"/>
                            <mxPoint x="625" y="340"/>
                        </Array>
                    </mxGeometry>
                </mxCell>
                <mxCell id="33" value="Add A New Beer" style="text;html=1;strokeColor=none;fillColor=none;align=center;verticalAlign=middle;whiteSpace=wrap;rounded=0;fontSize=12;fontColor=#99FFFF;" vertex="1" parent="1">
                    <mxGeometry x="570" y="170" width="100" height="20" as="geometry"/>
                </mxCell>
                <mxCell id="35" value="beer detail" style="text;strokeColor=none;fillColor=none;html=1;fontSize=24;fontStyle=1;verticalAlign=middle;align=center;" vertex="1" parent="1">
                    <mxGeometry x="945" y="45" width="100" height="40" as="geometry"/>
                </mxCell>
                <mxCell id="36" value="Add Beer to your List" style="text;html=1;strokeColor=none;fillColor=none;align=center;verticalAlign=middle;whiteSpace=wrap;rounded=0;fontSize=12;fontColor=#99FFFF;" vertex="1" parent="1">
                    <mxGeometry x="540" y="190" width="160" height="20" as="geometry"/>
                </mxCell>
                <mxCell id="38" value="Add A New Beer" style="text;html=1;strokeColor=none;fillColor=none;align=center;verticalAlign=middle;whiteSpace=wrap;rounded=0;fontSize=12;fontColor=#99FFFF;" vertex="1" parent="1">
                    <mxGeometry x="570" y="570" width="100" height="20" as="geometry"/>
                </mxCell>
                <mxCell id="42" value="&lt;ul&gt;&lt;li&gt;beer name&lt;/li&gt;&lt;li&gt;brewery&lt;/li&gt;&lt;li&gt;type&lt;/li&gt;&lt;li&gt;abv and ibu&lt;/li&gt;&lt;li&gt;image&lt;/li&gt;&lt;/ul&gt;" style="text;strokeColor=none;fillColor=none;html=1;whiteSpace=wrap;verticalAlign=middle;overflow=hidden;" vertex="1" parent="1">
                    <mxGeometry x="555" y="420" width="140" height="160" as="geometry"/>
                </mxCell>
                <mxCell id="43" value="" style="rounded=0;whiteSpace=wrap;html=1;fontSize=12;fontColor=#99FFFF;" vertex="1" parent="1">
                    <mxGeometry x="900" y="450" width="60" height="70" as="geometry"/>
                </mxCell>
                <mxCell id="44" value="&lt;span style=&quot;font-weight: normal ; font-size: 12px&quot;&gt;image&lt;/span&gt;" style="text;strokeColor=none;fillColor=none;html=1;fontSize=12;fontStyle=1;verticalAlign=middle;align=center;fontColor=#FFFFFF;" vertex="1" parent="1">
                    <mxGeometry x="890" y="470" width="80" height="40" as="geometry"/>
                </mxCell>
                <mxCell id="45" value="Beer Name" style="text;strokeColor=none;fillColor=none;html=1;fontSize=24;fontStyle=1;verticalAlign=middle;align=center;" vertex="1" parent="1">
                    <mxGeometry x="985.5" y="430" width="100" height="40" as="geometry"/>
                </mxCell>
                <mxCell id="46" value="Beer Type" style="text;strokeColor=none;fillColor=none;html=1;fontSize=14;fontStyle=1;verticalAlign=middle;align=center;" vertex="1" parent="1">
                    <mxGeometry x="995.5" y="485" width="100" height="40" as="geometry"/>
                </mxCell>
                <mxCell id="48" value="NEXT" style="html=1;whiteSpace=wrap;container=1;recursiveResize=0;collapsible=0;" vertex="1" parent="1">
                    <mxGeometry x="1550" y="370" width="150" height="60" as="geometry"/>
                </mxCell>
                <mxCell id="49" value="" style="triangle;html=1;whiteSpace=wrap;" vertex="1" parent="48">
                    <mxGeometry x="20" y="20" width="20" height="30" as="geometry"/>
                </mxCell>
                <mxCell id="50" value="" style="whiteSpace=wrap;html=1;aspect=fixed;fontSize=14;fontColor=#FFFFFF;" vertex="1" parent="1">
                    <mxGeometry x="1600" y="505" width="110" height="110" as="geometry"/>
                </mxCell>
                <mxCell id="51" value="Add to my beer list" style="text;html=1;strokeColor=none;fillColor=none;align=center;verticalAlign=middle;whiteSpace=wrap;rounded=0;fontSize=14;fontColor=#99FFFF;" vertex="1" parent="1">
                    <mxGeometry x="980" y="520" width="131" height="20" as="geometry"/>
                </mxCell>
                <mxCell id="56" value="" style="edgeStyle=orthogonalEdgeStyle;rounded=0;orthogonalLoop=1;jettySize=auto;html=1;fontSize=14;fontColor=#99FFFF;entryX=1;entryY=0.447;entryDx=0;entryDy=0;entryPerimeter=0;" edge="1" parent="1" source="52" target="6">
                    <mxGeometry relative="1" as="geometry">
                        <mxPoint x="1300" y="140" as="targetPoint"/>
                        <Array as="points">
                            <mxPoint x="1046" y="580"/>
                            <mxPoint x="1210" y="580"/>
                            <mxPoint x="1210" y="164"/>
                        </Array>
                    </mxGeometry>
                </mxCell>
                <mxCell id="52" value="More Info" style="text;html=1;strokeColor=none;fillColor=none;align=center;verticalAlign=middle;whiteSpace=wrap;rounded=0;fontSize=14;fontColor=#99FFFF;" vertex="1" parent="1">
                    <mxGeometry x="980" y="540" width="131" height="20" as="geometry"/>
                </mxCell>
                <UserObject label="1 2 3 4" placeholders="1" name="Variable" id="57">
                    <mxCell style="text;html=1;strokeColor=none;fillColor=none;align=center;verticalAlign=middle;whiteSpace=wrap;overflow=hidden;" vertex="1" parent="1">
                        <mxGeometry x="965" y="640" width="80" height="20" as="geometry"/>
                    </mxCell>
                </UserObject>
                <mxCell id="58" value="&lt;ul&gt;&lt;li&gt;beer name&lt;/li&gt;&lt;li&gt;brewery&lt;/li&gt;&lt;li&gt;type&lt;/li&gt;&lt;li&gt;abv and ibu&lt;/li&gt;&lt;li&gt;image&lt;/li&gt;&lt;/ul&gt;" style="text;strokeColor=none;fillColor=none;html=1;whiteSpace=wrap;verticalAlign=middle;overflow=hidden;" vertex="1" parent="1">
                    <mxGeometry x="930" y="80" width="140" height="120" as="geometry"/>
                </mxCell>
                <mxCell id="61" value="&lt;div&gt;&lt;span&gt;Add a bookmark&amp;nbsp;&lt;/span&gt;&lt;/div&gt;&lt;div&gt;&lt;span&gt;i&lt;/span&gt;&lt;span&gt;f there is time&lt;/span&gt;&lt;/div&gt;" style="ellipse;shape=cloud;whiteSpace=wrap;html=1;align=center;" vertex="1" parent="1">
                    <mxGeometry x="1111" y="615" width="189" height="95" as="geometry"/>
                </mxCell>
            </root>
        </mxGraphModel>
    </diagram>
</mxfile>